<svg xmlns="http://www.w3.org/2000/svg" width="395.52" viewBox="0.4 -24.05 77.43999999999998 44.25" height="225.97495158166558" data-palette-color="#fe7833"><path d="M18.3-17.35L18.3-17.35Q18.3-14.85 17.63-12.13 16.95-9.4 15.85-6.75 14.75-4.1 13.33-1.73 11.9 0.65 10.4 2.35L10.4 2.35Q9.85 2.95 9.75 2.9 9.65 2.85 9.85 2.15L9.85 2.15Q10.15 1.35 10.63 0.35 11.1-0.65 11.58-1.63 12.05-2.6 12.53-3.5 13-4.4 13.3-5L13.3-5Q13.65-5.75 14.1-6.98 14.55-8.2 14.98-9.7 15.4-11.2 15.8-12.85 16.2-14.5 16.5-16.03 16.8-17.55 16.98-18.82 17.15-20.1 17.1-20.9L17.1-20.9Q17.05-21.8 17.13-22.08 17.2-22.35 17.3-22.28 17.4-22.2 17.53-21.95 17.65-21.7 17.75-21.5L17.75-21.5Q18.1-20.5 18.2-19.25 18.3-18 18.3-17.35ZM8.45-3.55L8.45-3.55Q8.1-3.15 7.5-2.8 6.9-2.45 6.35-2.45L6.35-2.45Q5.15-2.45 4.38-3.15 3.6-3.85 3.15-4.88 2.7-5.9 2.53-7.05 2.35-8.2 2.35-9.1L2.35-9.1Q2.35-10.45 2.63-12.23 2.9-14 3.48-15.78 4.05-17.55 4.88-19.13 5.7-20.7 6.85-21.65L6.85-21.65Q7.15-21.85 7.4-22.03 7.65-22.2 7.25-21.5L7.25-21.5Q6.95-20.95 6.68-20.55 6.4-20.15 6.25-19.65L6.25-19.65Q5.45-18.2 4.98-16.6 4.5-15 4.2-13.35L4.2-13.35Q3.75-11.15 3.75-8.95L3.75-8.95Q3.75-8.15 3.83-7.2 3.9-6.25 4.2-5.4 4.5-4.55 5.13-3.98 5.75-3.4 6.85-3.4L6.85-3.4Q7.15-3.4 7.55-3.55 7.95-3.7 8.2-3.85L8.2-3.85Q8.6-4 8.6-3.9 8.6-3.8 8.45-3.55ZM19.6-16.5L19.6-16.5Q19.8-15.75 19.8-14.75L19.8-14.75Q19.8-12.7 19.2-10.23 18.6-7.75 17.63-5.1 16.65-2.45 15.33 0.25 14 2.95 12.58 5.45 11.15 7.95 9.65 10.13 8.15 12.3 6.8 13.9L6.8 13.9Q6.75 13.95 6.63 14.1 6.5 14.25 6.38 14.38 6.25 14.5 6.15 14.55 6.05 14.6 6.05 14.4L6.05 14.4Q6.05 14.3 6.68 13.08 7.3 11.85 8.25 10.03 9.2 8.2 10.33 6.08 11.45 3.95 12.5 2 13.55 0.05 14.33-1.45 15.1-2.95 15.35-3.5L15.35-3.5Q16.8-6.7 17.82-9.93 18.85-13.15 19.25-16.6L19.25-16.6Q19.3-17 19.33-17.03 19.35-17.05 19.6-16.5ZM16.35-20.2L16.35-20.2Q16.35-17.4 15.58-14.53 14.8-11.65 13.65-8.85 12.5-6.05 11.13-3.43 9.75-0.8 8.5 1.45L8.5 1.45Q6.25 5.65 4.7 9.98 3.15 14.3 2.55 19L2.55 19Q2.45 19.55 2.4 19.45L2.4 19.45Q2.35 19.45 2.27 19.18 2.2 18.9 2.15 18.57 2.1 18.25 2.08 17.9 2.05 17.55 2.05 17.3L2.05 17.3Q2.05 15.05 2.55 12.75 3.05 10.45 3.85 8.25 4.65 6.05 5.63 3.95 6.6 1.85 7.6 0L7.6 0 6.25 0Q4.75 0 3.65-0.7 2.55-1.4 1.85-2.55 1.15-3.7 0.78-5.25 0.4-6.8 0.4-8.5L0.4-8.5Q0.4-9.15 0.55-10.33 0.7-11.5 1-12.78 1.3-14.05 1.75-15.28 2.2-16.5 2.75-17.25L2.75-17.25Q3.15-17.8 3.2-17.7 3.25-17.6 3.1-17.05L3.1-17.05Q2.45-15.15 2.08-13.1 1.7-11.05 1.7-9.05L1.7-9.05Q1.7-7.9 1.85-6.55 2-5.2 2.48-4.08 2.95-2.95 3.85-2.2 4.75-1.45 6.3-1.45L6.3-1.45Q7.4-1.45 8.3-2.2 9.2-2.95 9.93-4.05 10.65-5.15 11.23-6.45 11.8-7.75 12.25-8.85L12.25-8.85Q11.75-8.15 11.08-7.48 10.4-6.8 9.65-6.25 8.9-5.7 8.15-5.35 7.4-5 6.7-5L6.7-5Q6-5 5.6-5.45 5.2-5.9 4.98-6.58 4.75-7.25 4.7-7.95 4.65-8.65 4.65-9.2L4.65-9.2Q4.65-11 4.88-12.83 5.1-14.65 5.6-16.43 6.1-18.2 6.93-19.83 7.75-21.45 8.95-22.8L8.95-22.8Q9.05-22.95 9.2-23.08 9.35-23.2 9.47-23.25 9.6-23.3 9.6-23.23 9.6-23.15 9.4-22.8L9.4-22.8Q7.95-20.1 7.03-16.8 6.1-13.5 6.1-10.4L6.1-10.4Q6.1-10.1 6.13-9.43 6.15-8.75 6.28-8.05 6.4-7.35 6.68-6.83 6.95-6.3 7.4-6.3L7.4-6.3Q7.55-6.3 7.8-6.45L7.8-6.45Q9.9-7.5 11.35-9.35 12.8-11.2 13.75-13.48 14.7-15.75 15.13-18.18 15.55-20.6 15.6-22.8L15.6-22.8Q15.6-23.6 15.7-23.65 15.8-23.7 16.05-22.8L16.05-22.8Q16.35-21.35 16.35-20.2ZM6.8 9.4L6.8 9.4Q6.8 9.75 6.58 10.55 6.35 11.35 6.05 12.25 5.75 13.15 5.45 14 5.15 14.85 5 15.3L5 15.3Q4.6 16.4 4.4 17.48 4.2 18.55 3.95 19.7L3.95 19.7Q3.95 19.8 3.9 20 3.85 20.2 3.7 20.2L3.7 20.2Q3.6 20.2 3.55 19.95 3.5 19.7 3.5 19.6L3.5 19.6Q3.4 19.2 3.38 18.5 3.35 17.8 3.4 17.4L3.4 17.4Q3.55 16.15 3.95 14.73 4.35 13.3 4.83 12.08 5.3 10.85 5.8 10.05 6.3 9.25 6.65 9.25L6.65 9.25Q6.8 9.25 6.8 9.4ZM37.8-17.35L37.8-17.35Q37.8-14.85 37.12-12.13 36.45-9.4 35.35-6.75 34.25-4.1 32.82-1.73 31.4 0.65 29.9 2.35L29.9 2.35Q29.35 2.95 29.25 2.9 29.15 2.85 29.35 2.15L29.35 2.15Q29.65 1.35 30.12 0.35 30.6-0.65 31.07-1.63 31.55-2.6 32.02-3.5 32.5-4.4 32.8-5L32.8-5Q33.15-5.75 33.6-6.98 34.05-8.2 34.47-9.7 34.9-11.2 35.3-12.85 35.7-14.5 36-16.03 36.3-17.55 36.47-18.82 36.65-20.1 36.6-20.9L36.6-20.9Q36.55-21.8 36.62-22.08 36.7-22.35 36.8-22.28 36.9-22.2 37.02-21.95 37.15-21.7 37.25-21.5L37.25-21.5Q37.6-20.5 37.7-19.25 37.8-18 37.8-17.35ZM27.95-3.55L27.95-3.55Q27.6-3.15 27-2.8 26.4-2.45 25.85-2.45L25.85-2.45Q24.65-2.45 23.87-3.15 23.1-3.85 22.65-4.88 22.2-5.9 22.02-7.05 21.85-8.2 21.85-9.1L21.85-9.1Q21.85-10.45 22.12-12.23 22.4-14 22.97-15.78 23.55-17.55 24.37-19.13 25.2-20.7 26.35-21.65L26.35-21.65Q26.65-21.85 26.9-22.03 27.15-22.2 26.75-21.5L26.75-21.5Q26.45-20.95 26.17-20.55 25.9-20.15 25.75-19.65L25.75-19.65Q24.95-18.2 24.47-16.6 24-15 23.7-13.35L23.7-13.35Q23.25-11.15 23.25-8.95L23.25-8.95Q23.25-8.15 23.32-7.2 23.4-6.25 23.7-5.4 24-4.55 24.62-3.98 25.25-3.4 26.35-3.4L26.35-3.4Q26.65-3.4 27.05-3.55 27.45-3.7 27.7-3.85L27.7-3.85Q28.1-4 28.1-3.9 28.1-3.8 27.95-3.55ZM39.1-16.5L39.1-16.5Q39.3-15.75 39.3-14.75L39.3-14.75Q39.3-12.7 38.7-10.23 38.1-7.75 37.12-5.1 36.15-2.45 34.82 0.25 33.5 2.95 32.07 5.45 30.65 7.95 29.15 10.13 27.65 12.3 26.3 13.9L26.3 13.9Q26.25 13.95 26.12 14.1 26 14.25 25.87 14.38 25.75 14.5 25.65 14.55 25.55 14.6 25.55 14.4L25.55 14.4Q25.55 14.3 26.17 13.08 26.8 11.85 27.75 10.03 28.7 8.2 29.82 6.08 30.95 3.95 32 2 33.05 0.05 33.82-1.45 34.6-2.95 34.85-3.5L34.85-3.5Q36.3-6.7 37.32-9.93 38.35-13.15 38.75-16.6L38.75-16.6Q38.8-17 38.82-17.03 38.85-17.05 39.1-16.5ZM35.85-20.2L35.85-20.2Q35.85-17.4 35.07-14.53 34.3-11.65 33.15-8.85 32-6.05 30.62-3.43 29.25-0.8 28 1.45L28 1.45Q25.75 5.65 24.2 9.98 22.65 14.3 22.05 19L22.05 19Q21.95 19.55 21.9 19.45L21.9 19.45Q21.85 19.45 21.77 19.18 21.7 18.9 21.65 18.57 21.6 18.25 21.57 17.9 21.55 17.55 21.55 17.3L21.55 17.3Q21.55 15.05 22.05 12.75 22.55 10.45 23.35 8.25 24.15 6.05 25.12 3.95 26.1 1.85 27.1 0L27.1 0 25.75 0Q24.25 0 23.15-0.7 22.05-1.4 21.35-2.55 20.65-3.7 20.27-5.25 19.9-6.8 19.9-8.5L19.9-8.5Q19.9-9.15 20.05-10.33 20.2-11.5 20.5-12.78 20.8-14.05 21.25-15.28 21.7-16.5 22.25-17.25L22.25-17.25Q22.65-17.8 22.7-17.7 22.75-17.6 22.6-17.05L22.6-17.05Q21.95-15.15 21.57-13.1 21.2-11.05 21.2-9.05L21.2-9.05Q21.2-7.9 21.35-6.55 21.5-5.2 21.97-4.08 22.45-2.95 23.35-2.2 24.25-1.45 25.8-1.45L25.8-1.45Q26.9-1.45 27.8-2.2 28.7-2.95 29.42-4.05 30.15-5.15 30.72-6.45 31.3-7.75 31.75-8.85L31.75-8.85Q31.25-8.15 30.57-7.48 29.9-6.8 29.15-6.25 28.4-5.7 27.65-5.35 26.9-5 26.2-5L26.2-5Q25.5-5 25.1-5.45 24.7-5.9 24.47-6.58 24.25-7.25 24.2-7.95 24.15-8.65 24.15-9.2L24.15-9.2Q24.15-11 24.37-12.83 24.6-14.65 25.1-16.43 25.6-18.2 26.42-19.83 27.25-21.45 28.45-22.8L28.45-22.8Q28.55-22.95 28.7-23.08 28.85-23.2 28.97-23.25 29.1-23.3 29.1-23.23 29.1-23.15 28.9-22.8L28.9-22.8Q27.45-20.1 26.52-16.8 25.6-13.5 25.6-10.4L25.6-10.4Q25.6-10.1 25.62-9.43 25.65-8.75 25.77-8.05 25.9-7.35 26.17-6.83 26.45-6.3 26.9-6.3L26.9-6.3Q27.05-6.3 27.3-6.45L27.3-6.45Q29.4-7.5 30.85-9.35 32.3-11.2 33.25-13.48 34.2-15.75 34.62-18.18 35.05-20.6 35.1-22.8L35.1-22.8Q35.1-23.6 35.2-23.65 35.3-23.7 35.55-22.8L35.55-22.8Q35.85-21.35 35.85-20.2ZM26.3 9.4L26.3 9.4Q26.3 9.75 26.07 10.55 25.85 11.35 25.55 12.25 25.25 13.15 24.95 14 24.65 14.85 24.5 15.3L24.5 15.3Q24.1 16.4 23.9 17.48 23.7 18.55 23.45 19.7L23.45 19.7Q23.45 19.8 23.4 20 23.35 20.2 23.2 20.2L23.2 20.2Q23.1 20.2 23.05 19.95 23 19.7 23 19.6L23 19.6Q22.9 19.2 22.87 18.5 22.85 17.8 22.9 17.4L22.9 17.4Q23.05 16.15 23.45 14.73 23.85 13.3 24.32 12.08 24.8 10.85 25.3 10.05 25.8 9.25 26.15 9.25L26.15 9.25Q26.3 9.25 26.3 9.4ZM58.2-22.2L58.2-22.35Q58.1-22.4 57.97-22.2 57.85-22 57.75-21.9L57.75-21.9Q57-20.95 56.4-19.55 55.8-18.15 55.37-16.6 54.95-15.05 54.67-13.5 54.4-11.95 54.2-10.75L54.2-10.75Q53.95-9.05 53.77-7.53 53.6-6 53.45-4.55 53.3-3.1 53.2-1.63 53.1-0.15 52.95 1.4L52.95 1.4Q53 1.45 53 1.68 53 1.9 53 2.13 53 2.35 53 2.53 53 2.7 53.1 2.7L53.1 2.7Q53.15 2.7 53.25 2.53 53.35 2.35 53.45 2.15 53.55 1.95 53.6 1.75 53.65 1.55 53.65 1.55L53.65 1.55Q54.2 0.35 54.6-1.25 55-2.85 55.25-4.45L55.25-4.45Q55.3-4.85 55.45-6.1 55.6-7.35 55.8-9 56-10.65 56.27-12.58 56.55-14.5 56.82-16.28 57.1-18.05 57.42-19.5 57.75-20.95 58.05-21.7L58.05-21.7Q58.1-21.9 58.15-22 58.2-22.1 58.2-22.2L58.2-22.2ZM56.55-22.55L56.55-22.55Q56.55-22.6 56.2-22.6L56.2-22.6Q56.05-22.6 55.9-22.55L55.9-22.55Q54-22.35 52.4-21.53 50.8-20.7 49.47-19.48 48.15-18.25 47.12-16.7 46.1-15.15 45.45-13.5L45.45-13.5Q44.75-11.8 44.4-9.9 44.05-8 44.15-6.35L44.15-6.35Q44.3-4.2 46.05-5.95L46.05-5.95Q47.55-7.45 48.87-9.2 50.2-10.95 51.37-12.9 52.55-14.85 53.6-16.88 54.65-18.9 55.7-20.95L55.7-20.95Q55.9-21.35 55.85-21.35L55.85-21.35Q55.75-21.45 55.62-21.35 55.5-21.25 55.5-21.15L55.5-21.15Q52.8-17.7 50.47-14.55 48.15-11.4 46.2-8.3L46.2-8.3Q45.95-8.05 45.87-8.15 45.8-8.25 45.85-8.5L45.85-8.5Q45.95-9.65 46.22-10.88 46.5-12.1 47-13.35L47-13.35Q48.2-16.4 50.45-18.75 52.7-21.1 56.1-22.25L56.1-22.25Q56.55-22.45 56.55-22.55ZM53.85-22.9L53.85-22.9Q53.8-23 53.62-23 53.45-23 53.3-23L53.3-23Q51.9-23 50.37-22.2 48.85-21.4 47.45-20.18 46.05-18.95 44.95-17.48 43.85-16 43.3-14.65L43.3-14.65Q42.6-12.85 42.12-11.18 41.65-9.5 41.6-7.8L41.6-7.8Q41.55-6.9 41.67-6.05 41.8-5.2 42.15-4.2L42.15-4.2Q42.35-3.6 42.82-3.25 43.3-2.9 43.82-2.8 44.35-2.7 44.9-2.8 45.45-2.9 45.85-3.2L45.85-3.2Q45.9-3.25 46.07-3.4 46.25-3.55 46.42-3.73 46.6-3.9 46.72-4.05 46.85-4.2 46.8-4.3L46.8-4.3Q46.75-4.4 46.32-4.17 45.9-3.95 45.6-3.9L45.6-3.9Q44.55-3.7 44.02-4.05 43.5-4.4 43.27-5.08 43.05-5.75 43.07-6.58 43.1-7.4 43.2-8.2L43.2-8.2Q43.2-8.5 43.32-9.25 43.45-10 43.75-11.08 44.05-12.15 44.57-13.45 45.1-14.75 45.85-16.05L45.85-16.05Q46.6-17.35 47.62-18.45 48.65-19.55 49.7-20.4 50.75-21.25 51.72-21.8 52.7-22.35 53.4-22.55L53.4-22.55Q53.75-22.65 53.8-22.73 53.85-22.8 53.85-22.9ZM59.9-23.25L59.9-23.45Q59.75-23.45 59.65-23.25L59.65-23.25Q59.6-23.15 59.55-23L59.55-23Q58.05-19.9 57.45-16.63 56.85-13.35 56.55-9.95 56.25-6.55 55.95-3.1 55.65 0.35 54.75 3.8L54.75 3.8Q54.45 4.9 54.15 6.1 53.85 7.3 53.35 8.45 52.85 9.6 52.02 10.63 51.2 11.65 49.8 12.35L49.8 12.35Q48.2 13.2 46.85 13.08 45.5 12.95 44.35 12.35 43.2 11.75 42.25 10.83 41.3 9.9 40.6 9.15L40.6 9.15Q40.5 9.05 40.4 8.93 40.3 8.8 40.25 8.85L40.25 8.85Q40.15 8.9 40.22 9.08 40.3 9.25 40.35 9.35L40.35 9.35Q41.5 11.5 43.85 13.1L43.85 13.1Q44.4 13.5 45.2 13.8 46 14.1 46.92 14.23 47.85 14.35 48.82 14.18 49.8 14 50.7 13.4L50.7 13.4Q52.35 12.3 53.32 11.08 54.3 9.85 54.9 8.58 55.5 7.3 55.82 5.95 56.15 4.6 56.45 3.3L56.45 3.3Q57.3-0.1 57.62-3.48 57.95-6.85 58.15-10.15 58.35-13.45 58.65-16.68 58.95-19.9 59.8-22.95L59.8-22.95Q59.9-23.15 59.9-23.25L59.9-23.25ZM54-13.9L54-13.9Q54.25-14.95 54.67-16.07 55.1-17.2 55.35-18.3L55.35-18.3Q55.35-18.4 55.42-18.65 55.5-18.9 55.45-18.9L55.45-18.9Q55.35-18.95 55.15-18.65 54.95-18.35 54.95-18.3L54.95-18.3Q54.25-17.15 53.7-15.88 53.15-14.6 52.7-13.55L52.7-13.55Q52.6-13.3 52.27-12.7 51.95-12.1 51.62-11.43 51.3-10.75 51.07-10.18 50.85-9.6 51-9.5L51-9.5Q51.1-9.5 51.3-9.73 51.5-9.95 51.6-10.05L51.6-10.05Q51.75-10.3 51.95-10.58 52.15-10.85 52.35-11.1L52.35-11.1Q52.05-9.85 51.82-9.03 51.6-8.2 51.35-7.55 51.1-6.9 50.77-6.33 50.45-5.75 49.9-5L49.9-5Q49.5-4.45 48.92-3.83 48.35-3.2 47.62-2.68 46.9-2.15 46.05-1.83 45.2-1.5 44.25-1.5L44.25-1.5Q43.05-1.5 42.35-2.13 41.65-2.75 41.3-3.68 40.95-4.6 40.85-5.65 40.75-6.7 40.8-7.6L40.8-7.6Q41-11.2 42.47-14.63 43.95-18.05 46.6-20.75L46.6-20.75Q46.6-20.8 46.75-20.95 46.9-21.1 46.9-21.15L46.9-21.15Q46.8-21.25 46.65-21.15L46.65-21.15 46.45-21.05Q45.55-20.5 44.57-19.55 43.6-18.6 42.72-17.32 41.85-16.05 41.12-14.5 40.4-12.95 39.9-11.3L39.9-11.3Q39.65-10.45 39.52-9.28 39.4-8.1 39.47-6.83 39.55-5.55 39.82-4.28 40.1-3 40.72-2.02 41.35-1.05 42.32-0.48 43.3 0.1 44.75 0L44.75 0Q46.2-0.1 47.07-0.5 47.95-0.9 48.5-1.35L48.5-1.35Q49.2-1.9 49.75-2.5 50.3-3.1 50.85-3.65L50.85-3.65Q50.55-1.9 50.27-0.68 50 0.55 49.75 1.65L49.75 1.65Q49.4 3.15 49.1 4.53 48.8 5.9 48.45 6.95 48.1 8 47.65 8.68 47.2 9.35 46.6 9.45L46.6 9.45Q45.9 9.45 45.9 9.6L45.9 9.6Q45.85 9.75 46.1 9.85 46.35 9.95 46.6 10L46.6 10Q47.35 10.15 48.02 9.75 48.7 9.35 49.22 8.58 49.75 7.8 50.17 6.75 50.6 5.7 50.9 4.6L50.9 4.6Q51.5 2.3 51.9 0.13 52.3-2.05 52.65-4.45L52.65-4.45Q53-6.8 53.22-9.15 53.45-11.5 54-13.9ZM48.4 10.9L48.4 10.9Q48.3 10.8 48.12 10.83 47.95 10.85 47.9 10.85L47.9 10.85Q47.05 11 46.22 10.8 45.4 10.6 44.55 10.25L44.55 10.25Q43.6 9.85 42.8 9.28 42 8.7 41 8.05L41 8.05Q40.9 7.95 40.7 7.85 40.5 7.75 40.5 7.85L40.5 7.85Q40.45 7.9 40.57 8.1 40.7 8.3 40.8 8.4L40.8 8.4Q41.45 9.25 42.17 10 42.9 10.75 44.05 11.2L44.05 11.2Q44.8 11.5 45.6 11.6 46.4 11.7 47.07 11.63 47.75 11.55 48.15 11.35 48.55 11.15 48.4 10.9ZM76.34-13.85L76.34-13.85Q76.49-15.2 76.39-16.7 76.29-18.2 75.77-19.48 75.24-20.75 74.17-21.6 73.09-22.45 71.34-22.45L71.34-22.45Q68.99-22.45 67.24-21.18 65.49-19.9 64.24-18.03 62.99-16.15 62.29-14.03 61.59-11.9 61.39-10.15L61.39-10.15Q61.09-7.75 61.32-6 61.54-4.25 62.14-3.13 62.74-2 63.67-1.45 64.59-0.9 65.69-0.9L65.69-0.9Q67.24-0.85 68.97-1.78 70.69-2.7 72.19-4.38 73.69-6.05 74.82-8.47 75.94-10.9 76.34-13.85ZM60.24-10.4L60.24-10.4Q60.44-12.4 61.24-14.8 62.04-17.2 63.47-19.25 64.89-21.3 66.89-22.68 68.89-24.05 71.54-24.05L71.54-24.05Q73.54-24.05 74.84-23.1 76.14-22.15 76.84-20.68 77.54-19.2 77.74-17.48 77.94-15.75 77.74-14.2L77.74-14.2Q77.29-10.6 75.99-7.95 74.69-5.3 72.94-3.53 71.19-1.75 69.24-0.88 67.29 0 65.49 0L65.49 0Q64.14 0 63.07-0.6 61.99-1.2 61.27-2.48 60.54-3.75 60.27-5.73 59.99-7.7 60.24-10.4ZM65.84-3.35L65.84-3.35Q65.59-3.35 65.34-3.53 65.09-3.7 64.94-3.95 64.79-4.2 64.74-4.45 64.69-4.7 64.94-4.8L64.94-4.8Q65.09-4.85 65.34-4.45 65.59-4.05 65.89-4.05L65.89-4.05Q66.39-4.05 67.07-4.7 67.74-5.35 68.37-6.23 68.99-7.1 69.47-7.95 69.94-8.8 70.14-9.2L70.14-9.2Q70.34-9.6 70.54-10.23 70.74-10.85 70.92-11.5 71.09-12.15 71.22-12.78 71.34-13.4 71.39-13.85L71.39-13.85Q71.64-16.1 71.29-17.32 70.94-18.55 70.14-18.55L70.14-18.55Q69.54-18.55 68.89-18.18 68.24-17.8 67.67-17.2 67.09-16.6 66.64-15.88 66.19-15.15 65.99-14.4L65.99-14.4Q65.74-13.55 65.64-13.55L65.64-13.55Q65.49-13.55 65.49-14.4L65.49-14.4Q65.64-15.35 66.14-16.28 66.64-17.2 67.39-17.93 68.14-18.65 69.04-19.13 69.94-19.6 70.89-19.6L70.89-19.6Q71.84-19.6 72.32-18.93 72.79-18.25 72.99-17.28 73.19-16.3 73.17-15.28 73.14-14.25 73.04-13.65L73.04-13.65Q72.84-12.3 72.42-11.03 71.99-9.75 71.39-8.45L71.39-8.45Q71.09-7.85 70.49-6.98 69.89-6.1 69.12-5.3 68.34-4.5 67.47-3.93 66.59-3.35 65.84-3.35ZM67.44-2.4L67.44-2.4Q67.49-2.1 66.97-1.9 66.44-1.7 65.89-1.7L65.89-1.7Q64.34-1.75 63.52-2.7 62.69-3.65 62.37-4.95 62.04-6.25 62.07-7.65 62.09-9.05 62.19-10L62.19-10Q62.39-11.65 62.99-13.7 63.59-15.75 64.69-17.55 65.79-19.35 67.39-20.58 68.99-21.8 71.19-21.8L71.19-21.8Q72.64-21.8 73.52-21.05 74.39-20.3 74.82-19.2 75.24-18.1 75.32-16.82 75.39-15.55 75.24-14.5L75.24-14.5Q75.14-13.35 74.89-12.4 74.64-11.45 74.19-10.3L74.19-10.3Q74.04-9.95 73.79-9.5 73.54-9.05 73.24-9.1L73.24-9.1Q73.09-9.15 73.17-9.5 73.24-9.85 73.37-10.38 73.49-10.9 73.64-11.48 73.79-12.05 73.84-12.55L73.84-12.55Q73.94-13.4 73.97-14.68 73.99-15.95 73.77-17.15 73.54-18.35 72.94-19.2 72.34-20.05 71.14-20.05L71.14-20.05Q69.39-20.05 67.92-18.93 66.44-17.8 65.34-16.18 64.24-14.55 63.57-12.78 62.89-11 62.74-9.65L62.74-9.65Q62.64-8.85 62.69-7.65 62.74-6.45 63.07-5.28 63.39-4.1 64.14-3.25 64.89-2.4 66.19-2.35L66.19-2.35Q66.59-2.3 66.97-2.43 67.34-2.55 67.44-2.4Z" opacity="1" transform="matrix(1,0,0,1,0,0)" fill="#fe7833" class="wordmark-text-0" data-fill-palette-color="primary" id="text-0"/></svg>